<svg width="520" height="810" viewBox="0 0 520 810" fill="none" xmlns="http://www.w3.org/2000/svg" xmlns:xlink="http://www.w3.org/1999/xlink">
<g clip-path="url(#clip0_58_1389)">
<path d="M278.997 692.823C460.586 692.823 607.794 545.615 607.794 364.026C607.794 182.436 460.586 35.2285 278.997 35.2285C97.4071 35.2285 -49.8003 182.436 -49.8003 364.026C-49.8003 545.615 97.4071 692.823 278.997 692.823Z" fill="url(#paint0_radial_58_1389)"/>
<path d="M126.341 845.478C256.048 845.478 361.196 740.33 361.196 610.623C361.196 480.916 256.048 375.768 126.341 375.768C-3.3655 375.768 -108.514 480.916 -108.514 610.623C-108.514 740.33 -3.3655 845.478 126.341 845.478Z" fill="url(#paint1_radial_58_1389)"/>
<path d="M278.997 537.818C387.951 537.818 476.276 449.493 476.276 340.539C476.276 231.586 387.951 143.261 278.997 143.261C170.044 143.261 81.7192 231.586 81.7192 340.539C81.7192 449.493 170.044 537.818 278.997 537.818Z" stroke="#C9A96E" stroke-opacity="0.1" stroke-width="1.17428"/>
<path d="M278.998 504.939C369.792 504.939 443.396 431.335 443.396 340.54C443.396 249.745 369.792 176.142 278.998 176.142C188.203 176.142 114.599 249.745 114.599 340.54C114.599 431.335 188.203 504.939 278.998 504.939Z" stroke="#C9A96E" stroke-opacity="0.08" stroke-width="0.587138"/>
<path d="M278.997 465.013C347.741 465.013 403.47 409.284 403.47 340.54C403.47 271.795 347.741 216.066 278.997 216.066C210.252 216.066 154.523 271.795 154.523 340.54C154.523 409.284 210.252 465.013 278.997 465.013Z" stroke="#C9A96E" stroke-opacity="0.13" stroke-width="1.17428"/>
<path d="M278.997 166.747L428.13 414.519H129.864L278.997 166.747Z" stroke="#C9A96E" stroke-opacity="0.35" stroke-width="1.40913"/>
<path d="M278.997 514.333L129.864 266.561H428.13L278.997 514.333Z" stroke="#C9A96E" stroke-opacity="0.35" stroke-width="1.40913"/>
<path opacity="0.6" d="M278.997 217.828C281.267 217.828 283.107 215.988 283.107 213.718C283.107 211.448 281.267 209.608 278.997 209.608C276.727 209.608 274.887 211.448 274.887 213.718C274.887 215.988 276.727 217.828 278.997 217.828Z" fill="#C9A96E"/>
<path opacity="0.6" d="M387.03 281.239C389.3 281.239 391.14 279.399 391.14 277.129C391.14 274.859 389.3 273.019 387.03 273.019C384.76 273.019 382.92 274.859 382.92 277.129C382.92 279.399 384.76 281.239 387.03 281.239Z" fill="#C9A96E"/>
<path opacity="0.6" d="M387.03 408.061C389.3 408.061 391.14 406.22 391.14 403.951C391.14 401.681 389.3 399.841 387.03 399.841C384.76 399.841 382.92 401.681 382.92 403.951C382.92 406.22 384.76 408.061 387.03 408.061Z" fill="#C9A96E"/>
<path opacity="0.6" d="M278.997 471.471C281.267 471.471 283.107 469.631 283.107 467.361C283.107 465.092 281.267 463.251 278.997 463.251C276.727 463.251 274.887 465.092 274.887 467.361C274.887 469.631 276.727 471.471 278.997 471.471Z" fill="#C9A96E"/>
<path opacity="0.6" d="M170.963 408.061C173.233 408.061 175.073 406.22 175.073 403.951C175.073 401.681 173.233 399.841 170.963 399.841C168.693 399.841 166.853 401.681 166.853 403.951C166.853 406.22 168.693 408.061 170.963 408.061Z" fill="#C9A96E"/>
<path opacity="0.6" d="M170.963 281.239C173.233 281.239 175.073 279.399 175.073 277.129C175.073 274.859 173.233 273.019 170.963 273.019C168.693 273.019 166.853 274.859 166.853 277.129C166.853 279.399 168.693 281.239 170.963 281.239Z" fill="#C9A96E"/>
<path d="M278.997 378.117C299.75 378.117 316.574 361.293 316.574 340.54C316.574 319.787 299.75 302.963 278.997 302.963C258.244 302.963 241.42 319.787 241.42 340.54C241.42 361.293 258.244 378.117 278.997 378.117Z" stroke="#C9A96E" stroke-opacity="0.3" stroke-width="1.40913"/>
<path opacity="0.7" d="M278.996 347.586C282.888 347.586 286.042 344.431 286.042 340.54C286.042 336.649 282.888 333.494 278.996 333.494C275.105 333.494 271.951 336.649 271.951 340.54C271.951 344.431 275.105 347.586 278.996 347.586Z" fill="#C9A96E"/>
<path d="M278.997 359.329C289.374 359.329 297.786 350.917 297.786 340.54C297.786 330.163 289.374 321.751 278.997 321.751C268.62 321.751 260.208 330.163 260.208 340.54C260.208 350.917 268.62 359.329 278.997 359.329Z" stroke="#C9A96E" stroke-opacity="0.2" stroke-width="1.17428"/>
<path d="M278.997 302.963V173.793" stroke="#C9A96E" stroke-opacity="0.1" stroke-width="0.704565"/>
<path d="M278.997 378.117V504.938" stroke="#C9A96E" stroke-opacity="0.1" stroke-width="0.704565"/>
<path d="M246.118 321.751L145.13 263.038" stroke="#C9A96E" stroke-opacity="0.1" stroke-width="0.704565"/>
<path d="M311.877 359.328L412.865 418.042" stroke="#C9A96E" stroke-opacity="0.1" stroke-width="0.704565"/>
<path d="M246.118 359.328L145.13 418.042" stroke="#C9A96E" stroke-opacity="0.1" stroke-width="0.704565"/>
<path d="M311.877 321.751L412.865 263.038" stroke="#C9A96E" stroke-opacity="0.1" stroke-width="0.704565"/>
<path d="M79.3701 93.9419V129.17" stroke="#C9A96E" stroke-opacity="0.25" stroke-width="0.93942"/>
<path d="M61.7554 111.556H96.9839" stroke="#C9A96E" stroke-opacity="0.25" stroke-width="0.93942"/>
<path opacity="0.35" d="M79.3701 113.905C80.6671 113.905 81.7186 112.854 81.7186 111.557C81.7186 110.259 80.6671 109.208 79.3701 109.208C78.073 109.208 77.0215 110.259 77.0215 111.557C77.0215 112.854 78.073 113.905 79.3701 113.905Z" fill="#C9A96E"/>
<path d="M466.881 64.5852L482.147 72.8052V90.4195L466.881 98.6395L451.615 90.4195V72.8052L466.881 64.5852Z" stroke="#C9A96E" stroke-opacity="0.2" stroke-width="0.93942"/>
<path opacity="0.3" d="M466.881 83.3737C468.178 83.3737 469.23 82.3222 469.23 81.0251C469.23 79.728 468.178 78.6765 466.881 78.6765C465.584 78.6765 464.533 79.728 464.533 81.0251C464.533 82.3222 465.584 83.3737 466.881 83.3737Z" fill="#C9A96E"/>
<path d="M88.7646 692.823L105.205 676.383L121.645 692.823L105.205 709.263L88.7646 692.823Z" stroke="#C9A96E" stroke-opacity="0.2" stroke-width="0.93942"/>
<path d="M466.88 704.565H502.109" stroke="#C9A96E" stroke-opacity="0.2" stroke-width="0.93942"/>
<path d="M484.495 686.95V722.179" stroke="#C9A96E" stroke-opacity="0.2" stroke-width="0.93942"/>
<path opacity="0.3" d="M484.494 707.501C486.116 707.501 487.43 706.186 487.43 704.565C487.43 702.944 486.116 701.629 484.494 701.629C482.873 701.629 481.559 702.944 481.559 704.565C481.559 706.186 482.873 707.501 484.494 707.501Z" fill="#C9A96E"/>
<path opacity="0.3" d="M102.856 201.388C103.829 201.388 104.618 200.6 104.618 199.627C104.618 198.654 103.829 197.865 102.856 197.865C101.883 197.865 101.095 198.654 101.095 199.627C101.095 200.6 101.883 201.388 102.856 201.388Z" fill="#C9A96E"/>
<path opacity="0.2" d="M138.084 165.573C138.732 165.573 139.258 165.047 139.258 164.398C139.258 163.75 138.732 163.224 138.084 163.224C137.435 163.224 136.91 163.75 136.91 164.398C136.91 165.047 137.435 165.573 138.084 165.573Z" fill="#C9A96E"/>
<path opacity="0.3" d="M419.91 189.645C420.883 189.645 421.671 188.857 421.671 187.884C421.671 186.911 420.883 186.123 419.91 186.123C418.937 186.123 418.148 186.911 418.148 187.884C418.148 188.857 418.937 189.645 419.91 189.645Z" fill="#C9A96E"/>
<path opacity="0.2" d="M455.138 230.158C455.787 230.158 456.312 229.632 456.312 228.984C456.312 228.335 455.787 227.809 455.138 227.809C454.49 227.809 453.964 228.335 453.964 228.984C453.964 229.632 454.49 230.158 455.138 230.158Z" fill="#C9A96E"/>
<path opacity="0.2" d="M61.7561 377.53C62.7289 377.53 63.5175 376.741 63.5175 375.768C63.5175 374.795 62.7289 374.007 61.7561 374.007C60.7832 374.007 59.9946 374.795 59.9946 375.768C59.9946 376.741 60.7832 377.53 61.7561 377.53Z" fill="#C9A96E"/>
<path opacity="0.2" d="M502.109 494.957C503.082 494.957 503.871 494.168 503.871 493.196C503.871 492.223 503.082 491.434 502.109 491.434C501.136 491.434 500.348 492.223 500.348 493.196C500.348 494.168 501.136 494.957 502.109 494.957Z" fill="#C9A96E"/>
<path opacity="0.25" d="M196.798 577.156C197.77 577.156 198.559 576.368 198.559 575.395C198.559 574.422 197.77 573.633 196.798 573.633C195.825 573.633 195.036 574.422 195.036 575.395C195.036 576.368 195.825 577.156 196.798 577.156Z" fill="#C9A96E"/>
<path opacity="0.2" d="M372.939 600.055C373.587 600.055 374.113 599.529 374.113 598.88C374.113 598.232 373.587 597.706 372.939 597.706C372.29 597.706 371.765 598.232 371.765 598.88C371.765 599.529 372.29 600.055 372.939 600.055Z" fill="#C9A96E"/>
<path d="M102.856 199.627L138.085 164.399" stroke="#C9A96E" stroke-opacity="0.12" stroke-width="0.587138"/>
<path d="M419.91 187.884L455.138 228.984" stroke="#C9A96E" stroke-opacity="0.12" stroke-width="0.587138"/>
<g opacity="0.22">
<path d="M278.997 66.9338V113.905" stroke="#C9A96E" stroke-width="1.76141" stroke-linecap="round"/>
<path d="M255.512 78.6765L302.483 102.162" stroke="#C9A96E" stroke-width="1.76141" stroke-linecap="round"/>
<path d="M255.512 102.162L273.126 86.8962" stroke="#C9A96E" stroke-width="1.76141" stroke-linecap="round"/>
<path d="M302.482 78.6765L284.868 86.8965" stroke="#C9A96E" stroke-width="1.76141" stroke-linecap="round"/>
</g>
<path d="M278.998 89.2451L429.305 173.793V507.287L278.998 591.835L128.69 507.287V173.793L278.998 89.2451Z" stroke="#C9A96E" stroke-opacity="0.05" stroke-width="1.17428" stroke-dasharray="4.7 7.05"/>
</g>
<defs>
<radialGradient id="paint0_radial_58_1389" cx="0" cy="0" r="1" gradientUnits="userSpaceOnUse" gradientTransform="translate(278.997 331.146) scale(394.556)">
<stop stop-color="#C9A96E" stop-opacity="0.18"/>
<stop offset="1" stop-color="#0C1018" stop-opacity="0"/>
</radialGradient>
<radialGradient id="paint1_radial_58_1389" cx="0" cy="0" r="1" gradientUnits="userSpaceOnUse" gradientTransform="translate(32.3993 704.565) scale(234.855)">
<stop stop-color="#4A6FA5" stop-opacity="0.1"/>
<stop offset="1" stop-color="#0C1018" stop-opacity="0"/>
</radialGradient>
<clipPath id="clip0_58_1389">
<rect width="520" height="810" fill="white"/>
</clipPath>
</defs>
</svg>
